:SAMPLES-PER-SECOND 30
:FULLY-SPECIFIED
:DEGREES
10
root  22.9400004 36.74800002 -63.00511398 -2.234040022 -10.20979977 -2.467930079
lowerback  5.654220104 1.739300013 4.994639874
upperback  3.450350046 2.53557992 1.410830021
thorax  0.5462329984 1.326789975 -1.468999982
lowerneck  -12.56700039 4.24421978 0.6590750217
upperneck  -0.9427629709 5.659239769 -3.825409889
head  1.994070053 2.701839924 -1.021239996
lclavicle  0 -1.620099928e-014 -1.431250036e-014
lhumerus  -50.62929916 33.27140045 65.47899628
lradius  -3.327882871e-031 -1.180694557e-031 19.53409958
lwrist  -2.824900031e-030 -2.824900031e-030 11.20619965
lhand  -1.522208093e-030 -21.89089966 22.84740067
lfingers  90 7.125020027 -90
lthumb  90.61603193 7.755020578 85.4441456
rclavicle  0 -1.620099928e-014 -1.431250036e-014
rhumerus  -9.940600395 14.23379993 -83.63169861
rradius  2.60588609e-031 2.382897758e-031 42.44070053
rwrist  2.824900031e-030 -0 -15.95230007
rhand  1.570731925e-030 -25.9428997 18.57430077
rfingers  -90 -7.125020027 -90
rthumb  -89.60083768 -33.59330664 -89.2785978
rfemur  20.24430084 2.004859924 28.5326004
rtibia  -0 0 15.59010029
rfoot  -4.544823575e-032 -13.78559971 1.946949959
rtoes  -1.575397198 19.94038992 -85.38945295
lfemur  -28.16530037 -1.094419956 -22.32699966
ltibia  -0 0 30.35750008
lfoot  -0 -8.431110382 15.0010004
ltoes  -3.695914299 -19.66929668 -100.8636129
11
root  22.91400038 36.66599904 -62.58044506 -2.388969898 -10.15219975 -2.384249926
lowerback  5.692510128 1.741039991 4.859839916
upperback  3.443599939 2.534590006 1.324980021
thorax  0.5153059959 1.324550033 -1.483819962
lowerneck  -12.41880035 4.200349808 0.693844974
upperneck  -1.415420055 5.576059818 -3.71449995
head  1.804739952 2.671410084 -1.003250003
lclavicle  0 -1.620099928e-014 -1.431250036e-014
lhumerus  -50.44390106 33.63130188 65.12180328
lradius  -3.335231613e-031 -1.159773306e-031 19.17429924
lwrist  0 -0 10.18430042
lhand  -1.522208093e-030 -21.89089966 22.84740067
lfingers  90 7.125020027 -90
lthumb  90.61603193 7.755020578 85.4441456
rclavicle  0 -1.620099928e-014 -1.431250036e-014
rhumerus  -10.34539986 13.87520027 -84.00759888
rradius  2.631674699e-031 2.354385762e-031 41.81689835
rwrist  0 -4.237350046e-030 -15.7038002
rhand  1.570731925e-030 -25.9428997 18.57430077
rfingers  -90 -7.125020027 -90
rthumb  -89.60083768 -33.59330664 -89.2785978
rfemur  20.65399933 1.769379973 28.36170006
rtibia  -0 0 16.99309921
rfoot  -4.542586033e-032 -13.67010021 1.756890059
rtoes  -1.575397198 19.94038992 -85.38945295
lfemur  -28.19140053 -1.140509963 -22.45800018
ltibia  -0 0 31.63360023
lfoot  -0 -8.26968956 14.98659992
ltoes  -3.695914299 -19.66929668 -100.8636129
12
root  22.88000002 36.71666543 -62.16066616 -2.456779957 -10.06369972 -2.620419979
lowerback  5.773109913 1.733109951 4.960820198
upperback  3.410079956 2.535320044 1.368460059
thorax  0.4387989938 1.323819995 -1.499160051
lowerneck  -12.57759953 4.129889965 0.7952939868
upperneck  -1.525920033 5.462759972 -3.670550108
head  1.795570016 2.615449905 -1.011070013
lclavicle  0 -1.620099928e-014 -1.431250036e-014
lhumerus  -50.19279861 34.0530014 64.792099
lradius  -3.342488561e-031 -1.13868971e-031 18.8125
lwrist  2.824900031e-030 -5.649800062e-030 8.891690254
lhand  -1.522208093e-030 -21.89089966 22.84740067
lfingers  90 7.125020027 -90
lthumb  90.61603193 7.755020578 85.4441456
rclavicle  0 -1.620099928e-014 -1.431250036e-014
rhumerus  -10.7201004 13.33740044 -84.36689758
rradius  2.66598036e-031 2.315468151e-031 40.97510147
rwrist  2.824900031e-030 -4.943575054e-030 -15.29389954
rhand  1.570731925e-030 -25.9428997 18.57430077
rfingers  -90 -7.125020027 -90
rthumb  -89.60083768 -33.59330664 -89.2785978
rfemur  19.9048996 2.001369953 28.56909943
rtibia  -0 0 19.18300056
rfoot  -4.520996838e-032 -12.49559975 2.24958992
rtoes  -1.575397198 19.94038992 -85.38945295
lfemur  -28.03100014 -0.8652690053 -22.30050087
ltibia  -0 0 32.72819901
lfoot  -0 -8.189189911 14.32820034
ltoes  -3.695914299 -19.66929668 -100.8636129
13
root  22.84711102 36.74044572 -61.75422368 -2.338609934 -9.80673027 -2.700449944
lowerback  5.607110023 1.653679967 4.87883997
upperback  3.357700109 2.418050051 1.391479969
thorax  0.4647020102 1.263759971 -1.419870019
lowerneck  -12.77390003 4.062389851 0.4508369863
upperneck  -1.676300049 5.400440216 -3.098140001
head  1.746260047 2.601360083 -0.771107018
lclavicle  0 -1.620099928e-014 -1.431250036e-014
lhumerus  -49.59479904 34.00400162 65.21089935
lradius  -3.343332272e-031 -1.136210083e-031 18.77000046
lwrist  0 -0 8.433569908
lhand  -1.522208093e-030 -21.89089966 22.84740067
lfingers  90 7.125020027 -90
lthumb  90.61603193 7.755020578 85.4441456
rclavicle  0 -1.620099928e-014 -1.431250036e-014
rhumerus  -10.99530029 12.70849991 -84.71040344
rradius  2.703579937e-031 2.271453182e-031 40.03580093
rwrist  2.824900031e-030 -2.824900031e-030 -14.69709969
rhand  1.570731925e-030 -25.9428997 18.57430077
rfingers  -90 -7.125020027 -90
rthumb  -89.60083768 -33.59330664 -89.2785978
rfemur  18.91270065 1.919929981 28.51499939
rtibia  -0 0 21.71999931
rfoot  -4.502819315e-032 -11.40499973 2.648159981
rtoes  -1.575397198 19.94038992 -85.38945295
lfemur  -28.0007 -0.7159410119 -22.35750008
ltibia  -0 0 33.57559967
lfoot  -0 -8.01088047 13.44880009
ltoes  -3.695914299 -19.66929668 -100.8636129
14
root  22.81177851 36.75733251 -61.35266522 -2.377939939 -9.475259781 -2.001270056
lowerback  5.47096014 1.58355999 4.10240984
upperback  3.30749011 2.284569979 1.111269951
thorax  0.4580450058 1.188369989 -1.266000032
lowerneck  -12.71640015 4.029319763 0.01693039946
upperneck  -2.043479919 5.387199879 -2.270709991
head  1.570930004 2.623899937 -0.4420909882
lclavicle  0 -1.620099928e-014 -1.431250036e-014
lhumerus  -48.7696991 33.58739853 65.78170013
lradius  -3.345116858e-031 -1.130945288e-031 18.67980003
lwrist  -2.824900031e-030 -1.412450015e-030 8.509750366
lhand  -1.522208093e-030 -21.89089966 22.84740067
lfingers  90 7.125020027 -90
lthumb  90.61603193 7.755020578 85.4441456
rclavicle  0 -1.620099928e-014 -1.431250036e-014
rhumerus  -11.42259979 12.00669956 -85.18669891
rradius  2.73689326e-031 2.231201318e-031 39.18799973
rwrist  2.824900031e-030 1.412450015e-030 -14.12139988
rhand  1.570731925e-030 -25.9428997 18.57430077
rfingers  -90 -7.125020027 -90
rthumb  -89.60083768 -33.59330664 -89.2785978
rfemur  17.74780083 1.747259974 27.59530067
rtibia  -0 0 24.78319931
rfoot  -6.737850311e-032 -10.69260025 3.01880002
rtoes  -1.575397198 19.94038992 -85.38945295
lfemur  -27.76729965 -0.7229269743 -23.27090073
ltibia  -0 0 34.18099976
lfoot  -0 -7.966959953 12.68470001
ltoes  -3.695914299 -19.66929668 -100.8636129
